<?xml version="1.0" encoding="utf-8"?>
<!-- Generator: Adobe Illustrator 25.1.0, SVG Export Plug-In . SVG Version: 6.00 Build 0)  -->
<svg version="1.1" id="Camada_1" xmlns="http://www.w3.org/2000/svg" xmlns:xlink="http://www.w3.org/1999/xlink" x="0px" y="0px"
	 viewBox="0 0 377 296" style="enable-background:new 0 0 377 296;" xml:space="preserve">
<style type="text/css">
	.st0{fill:#FFFFFF;}
	.st1{fill:url(#SVGID_1_);}
	.st2{fill:url(#SVGID_2_);}
	.st3{opacity:0.31;fill:url(#SVGID_3_);}
</style>
<path class="st0" d="M80.17,271.41c-1.38,2.53-2.75,5.03-4.12,7.52c-0.7,1.28-1.61,2.48-2.05,3.84c-1.11,3.37-3.3,4.51-6.7,3.92
	c-0.75-0.13-1.2-0.29-1.57-0.97c-2.32-4.2-4.69-8.38-7.04-12.57c-0.23-0.4-0.46-0.8-0.94-1.14c0,1.77,0,3.55,0,5.32
	c0,4.09-0.02,8.17,0.02,12.26c0.01,0.86-0.16,1.19-1.11,1.17c-2.97-0.06-5.94-0.05-8.9-0.01c-0.78,0.01-1.08-0.14-1.08-1.01
	c0.03-13.38,0.03-26.76,0-40.14c0-0.83,0.23-1.06,1.05-1.04c2.43,0.05,4.87,0.08,7.3-0.01c1.07-0.04,1.62,0.3,2.14,1.24
	c3.83,6.97,7.72,13.91,11.59,20.86c0.09,0.17,0.21,0.32,0.32,0.49c0.53-0.02,0.54-0.5,0.71-0.8c3.77-6.89,7.54-13.79,11.26-20.71
	c0.42-0.79,0.87-1.11,1.77-1.08c2.38,0.07,4.77,0.08,7.15,0c1.08-0.03,1.46,0.18,1.46,1.38c-0.05,8.37-0.01,16.73,0.02,25.1
	c0.02,4.81,0.03,9.63,0.12,14.44c0.02,1.04-0.28,1.3-1.29,1.27c-2.77-0.07-5.55-0.08-8.32,0c-1.1,0.03-1.46-0.22-1.45-1.4
	c0.04-5.59-0.03-11.19-0.07-16.78C80.43,272.22,80.6,271.81,80.17,271.41z"/>
<path class="st0" d="M304.71,270.6c-0.36,0.52-0.19,1.02-0.2,1.48c-0.01,5.79-0.03,11.58,0.01,17.37c0.01,0.98-0.18,1.34-1.25,1.31
	c-3.11-0.08-6.23-0.06-9.34-0.01c-0.9,0.02-1.14-0.23-1.13-1.13c0.03-13.33,0.03-26.66,0-40c0-0.81,0.19-1.09,1.04-1.07
	c2.43,0.05,4.87,0.07,7.3-0.01c1.04-0.03,1.67,0.31,2.29,1.13c4.57,6.11,9.2,12.18,13.81,18.26c0.2,0.26,0.41,0.51,0.65,0.8
	c0.36-0.49,0.18-0.98,0.18-1.43c0.02-5.79,0.05-11.58-0.02-17.37c-0.01-1.19,0.35-1.42,1.45-1.4c3.02,0.07,6.03,0.05,9.05,0.01
	c0.87-0.01,1.25,0.11,1.25,1.14c-0.04,13.28-0.04,26.57-0.01,39.85c0,0.94-0.22,1.23-1.19,1.2c-2.48-0.07-4.96-0.06-7.44-0.01
	c-0.81,0.02-1.3-0.24-1.8-0.9c-4.56-6.06-9.16-12.09-13.74-18.13C305.34,271.36,305.04,271,304.71,270.6z"/>
<path class="st0" d="M97.78,269.67c0-6.57,0.02-13.14-0.02-19.71c-0.01-1,0.1-1.41,1.29-1.41c9.34,0.06,18.69,0.05,28.04,0.01
	c1.01,0,1.32,0.23,1.29,1.27c-0.08,2.53-0.1,5.06,0.01,7.59c0.05,1.23-0.42,1.41-1.49,1.4c-5.35-0.05-10.71,0.01-16.06-0.05
	c-1.1-0.01-1.45,0.26-1.34,1.35c0.1,1.06,0.1,2.15,0,3.21c-0.09,0.96,0.3,1.1,1.15,1.09c4.72-0.04,9.44,0.03,14.16-0.05
	c1.2-0.02,1.42,0.36,1.39,1.45c-0.08,2.43-0.09,4.87,0,7.3c0.04,1.07-0.32,1.25-1.3,1.24c-4.67-0.05-9.35,0.02-14.02-0.06
	c-1.2-0.02-1.47,0.37-1.38,1.45c0.09,1.16,0.09,2.34,0,3.5c-0.08,1,0.19,1.3,1.25,1.29c5.65-0.06,11.29,0.01,16.94-0.06
	c1.14-0.01,1.48,0.27,1.44,1.43c-0.09,2.58-0.05,5.16-0.02,7.74c0.01,0.74-0.06,1.11-0.98,1.11c-9.78-0.04-19.57-0.04-29.35,0.01
	c-1.09,0.01-0.99-0.54-0.99-1.25C97.78,282.9,97.78,276.29,97.78,269.67z"/>
<path class="st0" d="M133.71,269.67c0-6.57,0.03-13.14-0.03-19.7c-0.01-1.19,0.35-1.43,1.45-1.4c3.02,0.07,6.03,0.08,9.05,0
	c1.13-0.03,1.44,0.27,1.44,1.42c-0.05,9.58,0,19.17-0.06,28.75c-0.01,1.21,0.29,1.54,1.51,1.52c5.01-0.07,10.02-0.01,15.04-0.05
	c0.97-0.01,1.36,0.19,1.33,1.26c-0.08,2.72-0.07,5.45,0,8.17c0.02,0.92-0.27,1.12-1.15,1.12c-9.15-0.03-18.3-0.04-27.45,0.01
	c-1.05,0.01-1.15-0.39-1.14-1.25C133.72,282.9,133.71,276.28,133.71,269.67z"/>
<path class="st0" d="M242.09,269.67c0-6.62,0.03-13.23-0.03-19.85c-0.01-1.05,0.29-1.28,1.29-1.26c3.06,0.07,6.13,0.07,9.2,0
	c1.12-0.03,1.45,0.25,1.45,1.42c-0.05,9.58-0.01,19.17-0.06,28.75c-0.01,1.2,0.27,1.55,1.5,1.53c4.96-0.07,9.93,0,14.89-0.05
	c1.08-0.01,1.54,0.18,1.49,1.41c-0.1,2.67-0.07,5.35-0.01,8.03c0.02,0.91-0.25,1.13-1.14,1.12c-9.15-0.03-18.3-0.04-27.45,0.01
	c-1.03,0.01-1.16-0.37-1.15-1.25C242.11,282.91,242.09,276.29,242.09,269.67z"/>
<path class="st0" d="M286.59,269.7c0,6.61-0.02,13.23,0.02,19.84c0.01,0.92-0.19,1.24-1.18,1.22c-3.21-0.07-6.42-0.06-9.63,0
	c-0.93,0.02-1.11-0.29-1.11-1.15c0.03-13.32,0.02-26.65,0-39.97c0-0.81,0.2-1.08,1.04-1.07c3.26,0.05,6.52,0.06,9.78-0.01
	c0.95-0.02,1.1,0.3,1.1,1.16C286.58,256.38,286.59,263.04,286.59,269.7z"/>
<path class="st0" d="M166.33,269.51c0-6.52,0.02-13.04-0.02-19.56c-0.01-1.02,0.14-1.44,1.32-1.4c3.16,0.1,6.33,0.06,9.49,0.02
	c0.8-0.01,1.07,0.18,1.06,1.03c-0.03,13.38-0.03,26.76,0,40.14c0,0.87-0.28,1.03-1.07,1.02c-3.21-0.04-6.43-0.07-9.64,0.01
	c-1.04,0.02-1.16-0.38-1.16-1.26C166.35,282.85,166.33,276.18,166.33,269.51z"/>
<path class="st0" d="M113.3,246.88c-4.67,0-9.34-0.04-14.01,0.03c-1.14,0.02-1.19-0.43-1.21-1.34c-0.02-0.99,0.22-1.3,1.27-1.3
	c9.34,0.04,18.68,0.05,28.01-0.01c1.21-0.01,1.26,0.47,1.32,1.44c0.06,1.17-0.49,1.2-1.38,1.19
	C122.64,246.86,117.97,246.88,113.3,246.88z"/>
<path class="st0" d="M376.96,269.21c0.01,11.43-6.53,19.88-17,21.91c-13.42,2.6-25.09-6.07-25.83-19.78
	c-0.46-8.46,2.23-15.6,9.57-20.28c12.23-7.78,31.73-2.11,33.16,16.69C376.91,268.38,376.95,269.01,376.96,269.21z M364.53,266.12
	c-0.96-4.23-4.38-7.26-8.42-7.5c-4.26-0.25-7.84,2.22-9.34,6.46c-0.76,2.15-0.86,4.38-0.6,6.61c0.83,7.22,7.95,11.28,13.82,7.82
	c3.97-2.34,4.98-6.22,4.99-10.61C364.84,268.03,364.74,267.06,364.53,266.12z"/>
<path class="st0" d="M45.29,290.74c-4.03,0-7.91-0.02-11.79,0.02c-0.77,0.01-0.84-0.52-1.02-0.99c-0.73-1.95-1.47-3.9-2.14-5.87
	c-0.27-0.79-0.62-1.12-1.52-1.11c-4.28,0.06-8.56,0.05-12.84,0c-0.76-0.01-1.11,0.23-1.35,0.93c-0.72,2.06-1.52,4.09-2.23,6.15
	c-0.23,0.66-0.54,0.9-1.24,0.89c-3.41-0.03-6.81-0.03-10.22,0c-0.81,0.01-1.13-0.05-0.73-1.01c5.46-13.42,10.89-26.85,16.3-40.29
	c0.26-0.66,0.57-0.88,1.26-0.88c3.11,0.03,6.23,0.05,9.34-0.01c0.89-0.02,1.23,0.31,1.55,1.1c4.93,12.22,9.89,24.43,14.85,36.64
	C44.08,287.73,44.65,289.16,45.29,290.74z M18.61,272.88c2.61,0,5.08,0,7.67,0c-1.2-3.25-2.36-6.42-3.53-9.58
	c-0.06-0.17-0.05-0.4-0.47-0.4C21.08,266.17,19.86,269.48,18.61,272.88z"/>
<path class="st0" d="M179.62,290.74c2.38-5.88,4.68-11.53,6.97-17.19c3.22-7.95,6.44-15.9,9.63-23.87c0.31-0.76,0.62-1.14,1.53-1.12
	c3.06,0.07,6.13,0.06,9.2,0c0.82-0.01,1.18,0.25,1.49,1c5.37,13.3,10.76,26.6,16.18,39.88c0.46,1.13,0.27,1.36-0.92,1.33
	c-3.26-0.08-6.52-0.08-9.78,0.01c-1.04,0.03-1.42-0.36-1.72-1.27c-0.64-1.93-1.44-3.81-2.1-5.74c-0.24-0.7-0.53-0.99-1.32-0.99
	c-4.33,0.04-8.66,0.04-12.99,0c-0.75-0.01-1.09,0.21-1.34,0.95c-0.69,2.07-1.51,4.09-2.25,6.15c-0.2,0.55-0.41,0.88-1.11,0.87
	C187.34,290.72,183.6,290.74,179.62,290.74z M198.71,272.06c-0.22,0.58-0.2,0.89,0.56,0.88c1.99-0.03,3.98-0.03,5.97,0
	c0.74,0.01,0.81-0.28,0.59-0.87c-1.17-3.12-2.33-6.25-3.57-9.59C201.03,265.81,199.88,268.94,198.71,272.06z"/>
<linearGradient id="SVGID_1_" gradientUnits="userSpaceOnUse" x1="129.3583" y1="149.127" x2="255.7002" y2="149.127">
	<stop  offset="0" style="stop-color:#B57E10"/>
	<stop  offset="0.0947" style="stop-color:#E5C35C"/>
	<stop  offset="0.1398" style="stop-color:#F9DF7B"/>
	<stop  offset="0.2581" style="stop-color:#FFF3A6"/>
	<stop  offset="0.3602" style="stop-color:#F9DF7B"/>
	<stop  offset="0.4892" style="stop-color:#B57E10"/>
	<stop  offset="0.573" style="stop-color:#E5C35C"/>
	<stop  offset="0.6129" style="stop-color:#F9DF7B"/>
	<stop  offset="0.7204" style="stop-color:#FFF3A6"/>
	<stop  offset="0.8387" style="stop-color:#F9DF7B"/>
	<stop  offset="1" style="stop-color:#B57E10"/>
</linearGradient>
<polygon class="st1" points="191.7,64.47 129.36,233.79 255.7,233.47 246.7,209.47 162.7,208.47 203.7,95.47 "/>
<linearGradient id="SVGID_2_" gradientUnits="userSpaceOnUse" x1="46.6356" y1="-72.4537" x2="233.2029" y2="307.6409">
	<stop  offset="0" style="stop-color:#FFFFFF"/>
	<stop  offset="0.6609" style="stop-color:#000000"/>
</linearGradient>
<path class="st2" d="M70.88,233.87l46.32,0.1l68-184l70,184h46L210.17,3.79C209.98,3.31,209.52,3,209.01,3l-45.27-0.03
	c-0.33,0-0.62,0.2-0.74,0.5L70.88,233.87z"/>
<linearGradient id="SVGID_3_" gradientUnits="userSpaceOnUse" x1="228.8329" y1="9.1459" x2="22.751" y2="265.9876">
	<stop  offset="0" style="stop-color:#FFFFFF"/>
	<stop  offset="0.0947" style="stop-color:#F9F9F9"/>
	<stop  offset="0.2192" style="stop-color:#E9E9E9"/>
	<stop  offset="0.3606" style="stop-color:#CDCDCD"/>
	<stop  offset="0.5143" style="stop-color:#A7A7A7"/>
	<stop  offset="0.678" style="stop-color:#767676"/>
	<stop  offset="0.8473" style="stop-color:#3B3B3B"/>
	<stop  offset="1" style="stop-color:#000000"/>
</linearGradient>
<path class="st3" d="M71.2,233c0,0,33.1-72.54,86.25-108.32l27.58-74.03l17.55,45.18c0,0,27.58-13.38,38.61-14.38L210.99,4.38
	c-0.47-1.17-1.6-1.95-2.88-1.96l-43.62,0.55c-0.92-0.01-1.74,0.54-2.08,1.39L71.2,233z"/>
</svg>
